<svg id="justia" xmlns="http://www.w3.org/2000/svg" viewBox="0 0 1300 391.389"><rect width="1300" height="391.389" rx="26.329" ry="26.329" fill="#06357a"/><path d="M377.842 302.57c-55.657 0-89.7-31.085-89.7-92.073V92.075h45.593v117.239c0 33.748 16.874 51.215 44.7 51.215s44.706-16.874 44.706-49.736V92.075h45.6v116.94c-.007 62.765-35.241 93.555-90.9 93.555zm-218.48-.296c-32.273 0-53.588-14.212-67.8-31.085l28.719-31.978c11.841 13.029 23.387 20.726 37.9 20.726 17.168 0 27.828-10.362 27.828-34.341V92.075h46.776v135.589c0 50.33-29.609 74.61-73.423 74.61zm432.249 0a131.868 131.868 0 0 1-87.93-33.161l26.944-32.268c18.653 15.4 38.191 25.167 61.873 25.167 18.653 0 29.9-7.4 29.9-19.545v-.589c0-11.545-7.1-17.468-41.743-26.346-41.745-10.66-68.685-22.207-68.685-63.361v-.591c0-37.6 30.2-62.469 72.532-62.469 30.2 0 55.955 9.479 76.967 26.353L637.8 149.8c-18.355-12.728-36.417-20.428-53.882-20.428s-26.646 7.993-26.646 18.059v.594c0 13.618 8.883 18.059 44.706 27.236 42.041 10.953 65.708 26.052 65.708 62.173v.589c-.005 41.159-31.372 64.251-76.075 64.251zm207.561-168.162v165.2h-45.6v-165.2h-63.059V92.075h171.719v42.036l-63.06.001zM908.14 92.075h45.588v207.239H908.14zm210.975-1.483h-42.044l-88.815 208.722h46.483l18.944-46.483h87.632l18.944 46.483h47.666zm-49.139 121.974l27.524-67.2 27.539 67.2z" fill="#fff"/></svg>